# xmcd
#
# Track frame offsets: 
#        150
#        13338
#        26034
#        37097
#        50667
#        65205
#        81401
#        93741
#        105291
#        119727
#        128851
#        145655
#        158698
#        169553
#
# Disc length: 2429 seconds
#
# Revision: 0
# Processed by: cddbd v1.5.2PL0 Copyright (c) Steve Scherf et al.
# Submitted via: ExactAudioCopy v1.0b1
#
DISCID=c8097b0e
DTITLE=Kim Carson Band - Gulf Of Mexico
DYEAR=2009
DGENRE=Country
TTITLE0=Gulf Of Mexico
TTITLE1=Where The Hell's The Johnny Cash
TTITLE2=A Six Pack To Go
TTITLE3=Baby Ride Easy
TTITLE4=Jack Daniels And Jesus
TTITLE5=Whiskey Heaven
TTITLE6=One More Shot Of Jack Daniels
TTITLE7=Cheap Ass Wine
TTITLE8=In Spite Of Ourselves
TTITLE9=Damned Queen Of The Rodeo
TTITLE10=Look Into Your Blues
TTITLE11=You Can't Drown Your Sorrows
TTITLE12=Midnight Clown
TTITLE13=Butt Biting Bob
EXTD=
EXTT0=
EXTT1=
EXTT2=
EXTT3=
EXTT4=
EXTT5=
EXTT6=
EXTT7=
EXTT8=
EXTT9=
EXTT10=
EXTT11=
EXTT12=
EXTT13=
PLAYORDER=
